<?xml version="1.0" encoding="UTF-8"?>
<!DOCTYPE svg PUBLIC "-//W3C//DTD SVG 1.1//EN" "http://www.w3.org/Graphics/SVG/1.1/DTD/svg11.dtd">
<!-- Creator: CorelDRAW X8 -->
<svg xmlns="http://www.w3.org/2000/svg" xml:space="preserve" width="31.6443mm" height="17.9917mm" version="1.1" style="shape-rendering:geometricPrecision; text-rendering:geometricPrecision; image-rendering:optimizeQuality; fill-rule:evenodd; clip-rule:evenodd"
viewBox="0 0 345 196"
 xmlns:xlink="http://www.w3.org/1999/xlink">
 <defs>
  <style type="text/css">
   <![CDATA[
    .fil0 {fill:none}
    .fil1 {fill:black}
   ]]>
  </style>
 </defs>
 <g id="Layer_x0020_1">
  <metadata id="CorelCorpID_0Corel-Layer"/>
  <rect class="fil0" width="345" height="196"/>
  <path class="fil1" d="M197 6l-29 0 -14 96 29 0 0 -1 5 -34 1 0 8 -1 1 0c7,0 13,4 13,11l0 1 -3 24 29 0c0,-1 0,-4 0,-5 1,-2 1,-4 1,-6 1,-3 1,-7 1,-11l0 -2c0,-6 -2,-11 -5,-14 -2,-1 -3,-2 -6,-3 -1,-1 -5,-3 -7,-3 1,0 4,-1 5,-1 2,-1 3,-1 4,-2 2,-2 4,-5 5,-8 1,-3 1,-7 2,-10 0,-4 1,-8 1,-11l-28 0c-1,0 -1,4 -1,5 0,1 -1,3 -1,4 -1,3 -1,7 -2,10 -1,5 -6,8 -13,8l-3 0 7 -47zm-188 95l0 1 28 0 10 -66c1,0 5,-1 7,-1 2,-1 5,-1 8,-1l0 0c3,0 7,1 9,2 2,2 4,4 4,7l0 3 -8 56 29 0 8 -56 0 -1c0,-15 -17,-20 -32,-20l-5 0c-4,0 -7,0 -10,0 -3,1 -7,1 -10,1l-27 0 -11 75zm266 -27c0,-10 3,-19 5,-26 3,-7 8,-14 18,-14 8,0 12,8 12,17l0 2c0,8 -2,21 -5,26 -3,7 -7,15 -16,15 -10,0 -14,-8 -14,-18l0 -2zm9 30l7 0c1,0 5,0 6,-1 1,0 3,0 5,0 3,-1 6,-2 8,-3 6,-2 10,-5 14,-9 4,-3 7,-9 9,-14 1,-3 2,-5 3,-9 0,-1 0,-3 0,-5 0,0 1,-5 1,-5l0 -5c0,-1 0,-3 0,-4 -1,-1 -1,-2 -1,-4 -1,-2 -2,-3 -2,-5 -2,-4 -5,-7 -8,-9 -7,-4 -17,-6 -27,-6l-1 0c-15,0 -28,4 -36,11 -4,4 -7,9 -9,14 -2,5 -5,13 -5,20l0 5c0,10 5,18 11,22 2,2 7,4 11,5 2,1 4,1 7,1 0,0 7,1 7,1zm-138 -53l-28 0 -8 51 29 0 7 -51zm1 -8c1,0 1,-4 1,-5 0,-1 0,-3 1,-4 0,-3 1,-6 1,-9l-29 0 -2 18 28 0z"/>
 </g>
</svg>
