<?xml version="1.0" encoding="UTF-8"?>
<!DOCTYPE svg PUBLIC "-//W3C//DTD SVG 1.1//EN" "http://www.w3.org/Graphics/SVG/1.1/DTD/svg11.dtd">
<!-- Creator: CorelDRAW X8 -->
<svg xmlns="http://www.w3.org/2000/svg" xml:space="preserve" width="26.1776mm" height="26.1776mm" version="1.1" style="shape-rendering:geometricPrecision; text-rendering:geometricPrecision; image-rendering:optimizeQuality; fill-rule:evenodd; clip-rule:evenodd"
viewBox="0 0 799 799"
 xmlns:xlink="http://www.w3.org/1999/xlink">
 <defs>
  <style type="text/css">
   <![CDATA[
    .fil3 {fill:black}
    .fil4 {fill:#1761D1}
    .fil1 {fill:#1F1F1F;fill-rule:nonzero}
    .fil2 {fill:url(#id0)}
    .fil0 {fill:url(#id1)}
   ]]>
  </style>
  <linearGradient id="id0" gradientUnits="userSpaceOnUse" x1="399.572" y1="609.259" x2="399.572" y2="189.886">
   <stop offset="0" style="stop-opacity:1; stop-color:#232326"/>
   <stop offset="0.168627" style="stop-opacity:1; stop-color:#242427"/>
   <stop offset="0.6" style="stop-opacity:1; stop-color:#323338"/>
   <stop offset="1" style="stop-opacity:1; stop-color:#34353B"/>
  </linearGradient>
  <linearGradient id="id1" gradientUnits="userSpaceOnUse" x1="399.572" y1="795.649" x2="399.572" y2="3.49238">
   <stop offset="0" style="stop-opacity:1; stop-color:#2D2E32"/>
   <stop offset="1" style="stop-opacity:1; stop-color:#3F4044"/>
  </linearGradient>
 </defs>
 <g id="Layer_x0020_1">
  <metadata id="CorelCorpID_0Corel-Layer"/>
  <path class="fil0" d="M3 3l793 0 0 793 -793 0 0 -793zm187 187l419 0 0 419 -419 0 0 -419z"/>
  <path class="fil1" d="M3 0l796 0 0 799 -799 0 0 -799 3 0zm789 7l-785 0 0 785 785 0 0 -785zm-602 179l423 0 0 427 -427 0 0 -427 4 0zm416 7l-413 0 0 413 413 0 0 -413z"/>
  <rect class="fil2" x="190" y="190" width="419" height="419"/>
  <path class="fil1" d="M190 186l423 0 0 427 -427 0 0 -427 4 0zm416 7l-413 0 0 413 413 0 0 -413z"/>
  <polygon class="fil3" points="606,593 193,593 193,606 606,606 "/>
  <rect class="fil4" x="265" y="521" width="14.8953" height="45.1381"/>
 </g>
</svg>
